{
	"asset":{
		"version":"2.0",
		"generator":"Maxon Cinema 4D 2026.0.0 (#200000219)"
	},
	"scenes":[{
		"nodes":[0]
	}],
	"nodes":[{
		"name":"Plane",
		"scale":[1.0,
		1.0,
		1.0],
		"translation":[0.0,
		11.430716514587403,
		-0.27736029028892519],
		"rotation":[0.0,
		0.0,
		0.0,
		-1.0],
		"children":[1,
		2,
		3,
		4]
	},
	{
		"name":"Contrail",
		"mesh":0,
		"scale":[1.0,
		1.0,
		1.0],
		"translation":[0.0,
		-11.430716514587403,
		0.27736029028892519],
		"rotation":[0.0,
		0.0,
		0.0,
		-1.0]
	},
	{
		"name":"Symmetry",
		"scale":[1.0,
		1.0,
		1.0],
		"translation":[0.0,
		-0.18525220453739167,
		0.27736029028892519],
		"rotation":[0.0,
		0.0,
		0.0,
		-1.0],
		"children":[5,
		6,
		7,
		8,
		9,
		10]
	},
	{
		"name":"Capsule.1",
		"mesh":1,
		"scale":[1.0,
		1.0,
		1.0],
		"translation":[0.0,
		0.2929677665233612,
		-0.5547205805778503],
		"rotation":[0.2164396196603775,
		0.0,
		0.0,
		-0.9762960076332092]
	},
	{
		"name":"Capsule",
		"scale":[1.0,
		1.0,
		1.0],
		"translation":[0.0,
		-0.10771556198596955,
		0.27736029028892519],
		"rotation":[0.7071067690849304,
		0.0,
		0.0,
		-0.7071067690849304],
		"children":[11]
	},
	{
		"name":"Capsule.2 1",
		"mesh":2,
		"scale":[1.0,
		1.0,
		1.0],
		"translation":[0.8373414278030396,
		-0.21994905173778535,
		0.15993395447731019],
		"rotation":[-0.7071067690849304,
		0.0,
		0.0,
		-0.7071067690849304]
	},
	{
		"name":"Capsule.2",
		"mesh":3,
		"scale":[1.0,
		1.0,
		1.0],
		"translation":[-0.8373414278030396,
		-0.21994905173778535,
		0.15993395447731019],
		"rotation":[-0.7071067690849304,
		0.0,
		0.0,
		-0.7071067690849304]
	},
	{
		"name":"Capsule.2 1",
		"mesh":4,
		"scale":[1.0,
		1.0,
		1.0],
		"translation":[0.679854691028595,
		0.003849276341497898,
		0.1357170045375824],
		"rotation":[0.1530459225177765,
		0.1530459225177765,
		-0.6903455257415772,
		-0.6903455257415772]
	},
	{
		"name":"Capsule.2",
		"mesh":5,
		"scale":[1.0,
		1.0,
		1.0],
		"translation":[-0.679854691028595,
		0.003849276341497898,
		0.1357170045375824],
		"rotation":[0.1530459225177765,
		0.1530459225177765,
		-0.6903455257415772,
		-0.6903455257415772]
	},
	{
		"name":"Capsule.3 1",
		"mesh":6,
		"scale":[1.0,
		1.0,
		1.0],
		"translation":[0.257841020822525,
		0.21424849331378938,
		-0.8320809006690979],
		"rotation":[0.1530459225177765,
		0.1530459225177765,
		-0.6903455257415772,
		-0.6903455257415772]
	},
	{
		"name":"Capsule.3",
		"mesh":7,
		"scale":[1.0,
		1.0,
		1.0],
		"translation":[-0.257841020822525,
		0.21424849331378938,
		-0.8320809006690979],
		"rotation":[0.1530459225177765,
		0.1530459225177765,
		-0.6903455257415772,
		-0.6903455257415772]
	},
	{
		"name":"Capsule",
		"mesh":8
	}],
	"meshes":[{
		"name":"Contrail",
		"primitives":[{
			"attributes":{
				"POSITION":1,
				"NORMAL":2,
				"TEXCOORD_0":3
			},
			"indices":0,
			"material":0
		}]
	},
	{
		"name":"Capsule.1",
		"primitives":[{
			"attributes":{
				"POSITION":5,
				"NORMAL":6,
				"TEXCOORD_0":7
			},
			"indices":4,
			"material":0
		}]
	},
	{
		"name":"Capsule.2 1",
		"primitives":[{
			"attributes":{
				"POSITION":9,
				"NORMAL":10,
				"TEXCOORD_0":11
			},
			"indices":8,
			"material":0
		}]
	},
	{
		"name":"Capsule.2",
		"primitives":[{
			"attributes":{
				"POSITION":13,
				"NORMAL":14,
				"TEXCOORD_0":15
			},
			"indices":12,
			"material":0
		}]
	},
	{
		"name":"Capsule.2 1",
		"primitives":[{
			"attributes":{
				"POSITION":17,
				"NORMAL":18,
				"TEXCOORD_0":19
			},
			"indices":16,
			"material":0
		}]
	},
	{
		"name":"Capsule.2",
		"primitives":[{
			"attributes":{
				"POSITION":21,
				"NORMAL":22,
				"TEXCOORD_0":23
			},
			"indices":20,
			"material":0
		}]
	},
	{
		"name":"Capsule.3 1",
		"primitives":[{
			"attributes":{
				"POSITION":25,
				"NORMAL":26,
				"TEXCOORD_0":27
			},
			"indices":24,
			"material":0
		}]
	},
	{
		"name":"Capsule.3",
		"primitives":[{
			"attributes":{
				"POSITION":29,
				"NORMAL":30,
				"TEXCOORD_0":31
			},
			"indices":28,
			"material":0
		}]
	},
	{
		"name":"Capsule",
		"primitives":[{
			"attributes":{
				"POSITION":33,
				"NORMAL":34,
				"TEXCOORD_0":35
			},
			"indices":32,
			"material":0
		}]
	}],
	"accessors":[{
		"bufferView":0,
		"type":"SCALAR",
		"componentType":5123,
		"count":2952,
		"byteOffset":0,
		"min":[0],
		"max":[2951]
	},
	{
		"bufferView":1,
		"type":"VEC3",
		"componentType":5126,
		"count":2952,
		"byteOffset":0,
		"min":[-0.17870041728019715,
		-11.425896644592286,
		-11.494461059570313],
		"max":[0.17870041728019715,
		11.557571411132813,
		11.347709655761719]
	},
	{
		"bufferView":1,
		"type":"VEC3",
		"componentType":5126,
		"count":2952,
		"byteOffset":12,
		"min":[-0.9999998807907105,
		-0.9999915361404419,
		-0.9634823799133301],
		"max":[0.9999597668647766,
		0.9999914169311523,
		0.9998447299003601]
	},
	{
		"bufferView":1,
		"type":"VEC2",
		"componentType":5126,
		"count":2952,
		"byteOffset":24,
		"min":[0.0,
		0.0],
		"max":[1.0,
		1.0]
	},
	{
		"bufferView":2,
		"type":"SCALAR",
		"componentType":5123,
		"count":1056,
		"byteOffset":0,
		"min":[0],
		"max":[1055]
	},
	{
		"bufferView":3,
		"type":"VEC3",
		"componentType":5126,
		"count":1056,
		"byteOffset":0,
		"min":[-0.09847256541252136,
		-0.4027068316936493,
		-0.20135341584682465],
		"max":[0.09847256541252136,
		0.4027068316936493,
		0.20135341584682465]
	},
	{
		"bufferView":3,
		"type":"VEC3",
		"componentType":5126,
		"count":1056,
		"byteOffset":12,
		"min":[-0.9996709227561951,
		-1.0,
		-0.9486120343208313],
		"max":[0.9996709227561951,
		1.0,
		0.9486120343208313]
	},
	{
		"bufferView":3,
		"type":"VEC2",
		"componentType":5126,
		"count":1056,
		"byteOffset":24,
		"min":[0.0,
		0.0],
		"max":[1.0,
		1.0]
	},
	{
		"bufferView":4,
		"type":"SCALAR",
		"componentType":5123,
		"count":1056,
		"byteOffset":0,
		"min":[0],
		"max":[1055]
	},
	{
		"bufferView":5,
		"type":"VEC3",
		"componentType":5126,
		"count":1056,
		"byteOffset":0,
		"min":[-0.1304415613412857,
		-0.2608831226825714,
		-0.1304415613412857],
		"max":[0.1304415613412857,
		0.2608831226825714,
		0.1304415613412857]
	},
	{
		"bufferView":5,
		"type":"VEC3",
		"componentType":5126,
		"count":1056,
		"byteOffset":12,
		"min":[-1.0,
		-1.0,
		-1.0],
		"max":[1.0,
		1.0,
		1.0]
	},
	{
		"bufferView":5,
		"type":"VEC2",
		"componentType":5126,
		"count":1056,
		"byteOffset":24,
		"min":[0.0,
		0.0],
		"max":[1.0,
		1.0]
	},
	{
		"bufferView":6,
		"type":"SCALAR",
		"componentType":5123,
		"count":1056,
		"byteOffset":0,
		"min":[0],
		"max":[1055]
	},
	{
		"bufferView":7,
		"type":"VEC3",
		"componentType":5126,
		"count":1056,
		"byteOffset":0,
		"min":[-0.1304415613412857,
		-0.2608831226825714,
		-0.1304415613412857],
		"max":[0.1304415613412857,
		0.2608831226825714,
		0.1304415613412857]
	},
	{
		"bufferView":7,
		"type":"VEC3",
		"componentType":5126,
		"count":1056,
		"byteOffset":12,
		"min":[-1.0,
		-1.0,
		-1.0],
		"max":[1.0,
		1.0,
		1.0]
	},
	{
		"bufferView":7,
		"type":"VEC2",
		"componentType":5126,
		"count":1056,
		"byteOffset":24,
		"min":[0.0,
		0.0],
		"max":[1.0,
		1.0]
	},
	{
		"bufferView":8,
		"type":"SCALAR",
		"componentType":5123,
		"count":1176,
		"byteOffset":0,
		"min":[0],
		"max":[1175]
	},
	{
		"bufferView":9,
		"type":"VEC3",
		"componentType":5126,
		"count":1176,
		"byteOffset":0,
		"min":[-0.15441381931304933,
		-0.7038459777832031,
		-0.8038740754127502],
		"max":[0.15441381931304933,
		0.7461432814598084,
		0.8230819702148438]
	},
	{
		"bufferView":9,
		"type":"VEC3",
		"componentType":5126,
		"count":1176,
		"byteOffset":12,
		"min":[-0.9998671412467957,
		-0.9894558191299439,
		-0.9952030777931213],
		"max":[0.9998671412467957,
		0.9990071654319763,
		0.9939438700675964]
	},
	{
		"bufferView":9,
		"type":"VEC2",
		"componentType":5126,
		"count":1176,
		"byteOffset":24,
		"min":[0.0,
		0.0],
		"max":[1.0,
		1.0]
	},
	{
		"bufferView":10,
		"type":"SCALAR",
		"componentType":5123,
		"count":1176,
		"byteOffset":0,
		"min":[0],
		"max":[1175]
	},
	{
		"bufferView":11,
		"type":"VEC3",
		"componentType":5126,
		"count":1176,
		"byteOffset":0,
		"min":[-0.15441381931304933,
		-0.9928441643714905,
		-0.37183868885040285],
		"max":[0.15441381931304933,
		0.9928441643714905,
		0.37183868885040285]
	},
	{
		"bufferView":11,
		"type":"VEC3",
		"componentType":5126,
		"count":1176,
		"byteOffset":12,
		"min":[-0.9998670220375061,
		-1.0,
		-0.9015455842018127],
		"max":[0.9998670220375061,
		1.0,
		0.9015455842018127]
	},
	{
		"bufferView":11,
		"type":"VEC2",
		"componentType":5126,
		"count":1176,
		"byteOffset":24,
		"min":[0.0,
		0.0],
		"max":[1.0,
		1.0]
	},
	{
		"bufferView":12,
		"type":"SCALAR",
		"componentType":5123,
		"count":1188,
		"byteOffset":0,
		"min":[0],
		"max":[1187]
	},
	{
		"bufferView":13,
		"type":"VEC3",
		"componentType":5126,
		"count":1188,
		"byteOffset":0,
		"min":[-0.09847256541252136,
		-0.30711036920547488,
		-0.3358785808086395],
		"max":[0.09847256541252136,
		0.3300146758556366,
		0.35483288764953616]
	},
	{
		"bufferView":13,
		"type":"VEC3",
		"componentType":5126,
		"count":1188,
		"byteOffset":12,
		"min":[-0.9996711611747742,
		-0.9997215867042542,
		-0.9823426008224487],
		"max":[0.9996712803840637,
		0.9957824349403381,
		0.9919252395629883]
	},
	{
		"bufferView":13,
		"type":"VEC2",
		"componentType":5126,
		"count":1188,
		"byteOffset":24,
		"min":[0.0,
		0.0],
		"max":[1.0,
		1.0]
	},
	{
		"bufferView":14,
		"type":"SCALAR",
		"componentType":5123,
		"count":1188,
		"byteOffset":0,
		"min":[0],
		"max":[1187]
	},
	{
		"bufferView":15,
		"type":"VEC3",
		"componentType":5126,
		"count":1188,
		"byteOffset":0,
		"min":[-0.09847256541252136,
		-0.4027068316936493,
		-0.20135341584682465],
		"max":[0.09847256541252136,
		0.4027068316936493,
		0.20135341584682465]
	},
	{
		"bufferView":15,
		"type":"VEC3",
		"componentType":5126,
		"count":1188,
		"byteOffset":12,
		"min":[-0.9996709227561951,
		-1.0,
		-0.9486120343208313],
		"max":[0.9996709227561951,
		1.0,
		0.9486120343208313]
	},
	{
		"bufferView":15,
		"type":"VEC2",
		"componentType":5126,
		"count":1188,
		"byteOffset":24,
		"min":[0.0,
		0.0],
		"max":[1.0,
		1.0]
	},
	{
		"bufferView":16,
		"type":"SCALAR",
		"componentType":5123,
		"count":1104,
		"byteOffset":0,
		"min":[0],
		"max":[1103]
	},
	{
		"bufferView":17,
		"type":"VEC3",
		"componentType":5126,
		"count":1104,
		"byteOffset":0,
		"min":[-0.3848627507686615,
		-1.407082200050354,
		-0.3848627507686615],
		"max":[0.3848627507686615,
		0.9149879813194275,
		0.3848627507686615]
	},
	{
		"bufferView":17,
		"type":"VEC3",
		"componentType":5126,
		"count":1104,
		"byteOffset":12,
		"min":[-0.9997168183326721,
		-0.9830598831176758,
		-0.9997668266296387],
		"max":[0.9997206330299377,
		0.997586190700531,
		0.9994540810585022]
	},
	{
		"bufferView":17,
		"type":"VEC2",
		"componentType":5126,
		"count":1104,
		"byteOffset":24,
		"min":[0.0,
		0.0],
		"max":[1.0,
		0.9238142967224121]
	}],
	"bufferViews":[{
		"buffer":0,
		"byteOffset":0,
		"byteLength":5904,
		"target":34963
	},
	{
		"buffer":0,
		"byteOffset":5904,
		"byteLength":94464,
		"target":34962,
		"byteStride":32
	},
	{
		"buffer":1,
		"byteOffset":0,
		"byteLength":2112,
		"target":34963
	},
	{
		"buffer":1,
		"byteOffset":2112,
		"byteLength":33792,
		"target":34962,
		"byteStride":32
	},
	{
		"buffer":2,
		"byteOffset":0,
		"byteLength":2112,
		"target":34963
	},
	{
		"buffer":2,
		"byteOffset":2112,
		"byteLength":33792,
		"target":34962,
		"byteStride":32
	},
	{
		"buffer":3,
		"byteOffset":0,
		"byteLength":2112,
		"target":34963
	},
	{
		"buffer":3,
		"byteOffset":2112,
		"byteLength":33792,
		"target":34962,
		"byteStride":32
	},
	{
		"buffer":4,
		"byteOffset":0,
		"byteLength":2352,
		"target":34963
	},
	{
		"buffer":4,
		"byteOffset":2352,
		"byteLength":37632,
		"target":34962,
		"byteStride":32
	},
	{
		"buffer":5,
		"byteOffset":0,
		"byteLength":2352,
		"target":34963
	},
	{
		"buffer":5,
		"byteOffset":2352,
		"byteLength":37632,
		"target":34962,
		"byteStride":32
	},
	{
		"buffer":6,
		"byteOffset":0,
		"byteLength":2376,
		"target":34963
	},
	{
		"buffer":6,
		"byteOffset":2376,
		"byteLength":38016,
		"target":34962,
		"byteStride":32
	},
	{
		"buffer":7,
		"byteOffset":0,
		"byteLength":2376,
		"target":34963
	},
	{
		"buffer":7,
		"byteOffset":2376,
		"byteLength":38016,
		"target":34962,
		"byteStride":32
	},
	{
		"buffer":8,
		"byteOffset":0,
		"byteLength":2208,
		"target":34963
	},
	{
		"buffer":8,
		"byteOffset":2208,
		"byteLength":35328,
		"target":34962,
		"byteStride":32
	}],
	"buffers":[{
		"uri":"data:application/octet-stream;base64,",
		"byteLength":100368
	},
	{
		"uri":"data:application/octet-stream;base64,",
		"byteLength":35904
	},
	{
		"uri":"data:application/octet-stream;base64,",
		"byteLength":35904
	},
	{
		"uri":"data:application/octet-stream;base64,",
		"byteLength":35904
	},
	{
		"uri":"data:application/octet-stream;base64,",
		"byteLength":39984
	},
	{
		"uri":"data:application/octet-stream;base64,",
		"byteLength":39984
	},
	{
		"uri":"data:application/octet-stream;base64,",
		"byteLength":40392
	},
	{
		"uri":"data:application/octet-stream;base64,",
		"byteLength":40392
	},
	{
		"uri":"data:application/octet-stream;base64,",
		"byteLength":37536
	}],
	"materials":[{
		"pbrMetallicRoughness":{
			"baseColorFactor":[0.9999999403953552,
			0.9999999403953552,
			0.9999999403953552,
			1.0],
			"metallicFactor":0.0,
			"roughnessFactor":0.5
		},
		"emissiveFactor":[0.0,
		0.0,
		0.0],
		"name":"Mat",
		"alphaMode":"OPAQUE",
		"doubleSided":false
	}]
}