{
	"buffers":[{
		"uri":"data:application/octet-stream;base64,",
		"byteLength":924
	}],
	"asset":{
		"version":"2.0",
		"generator":"Maxon Cinema 4D 2026.0.0 (#200000219)"
	},
	"scenes":[{
		"nodes":[0]
	}],
	"nodes":[{
		"name":"Star",
		"mesh":0
	}],
	"meshes":[{
		"name":"Star",
		"primitives":[{
			"attributes":{
				"POSITION":1
			},
			"indices":0,
			"material":0
		}]
	}],
	"accessors":[{
		"max":[51],
		"bufferView":0,
		"type":"SCALAR",
		"componentType":5123,
		"count":150,
		"byteOffset":0,
		"min":[0]
	},
	{
		"max":[0.0061911968514323238,
		0.006230754777789116,
		0.00011392070882720873],
		"bufferView":1,
		"type":"VEC3",
		"componentType":5126,
		"count":52,
		"byteOffset":0,
		"min":[-0.006232493557035923,
		-0.006192678119987249,
		0.00011392070882720873]
	}],
	"bufferViews":[{
		"buffer":0,
		"byteOffset":0,
		"byteLength":300,
		"target":34963
	},
	{
		"buffer":0,
		"byteOffset":300,
		"byteLength":624,
		"target":34962
	}],
	"materials":[{
		"pbrMetallicRoughness":{
			"baseColorFactor":[0.9999999403953552,
			0.9999999403953552,
			0.9999999403953552,
			1.0],
			"metallicFactor":1.0,
			"roughnessFactor":1.0
		},
		"emissiveFactor":[0.0,
		0.0,
		0.0],
		"alphaMode":"OPAQUE",
		"doubleSided":false,
		"name":"whiteStar"
	}]
}